<svg xmlns="http://www.w3.org/2000/svg" viewBox="0 0 320 320">
<defs>
  <radialGradient id="sweep" cx="50%" cy="50%" r="50%">
    <stop offset="0%" stop-color="#2387c8" stop-opacity="0.18"/>
    <stop offset="100%" stop-color="#2387c8" stop-opacity="0"/>
  </radialGradient>
</defs>
<g transform="translate(160, 148)">
  <circle cx="0" cy="0" r="88" fill="none" stroke="#1d6fa4" stroke-width="1.2"/>
  <circle cx="0" cy="0" r="62" fill="none" stroke="#1d6fa4" stroke-width="0.8" opacity="0.6"/>
  <circle cx="0" cy="0" r="38" fill="none" stroke="#2387c8" stroke-width="0.8" opacity="0.5"/>
  <circle cx="0" cy="0" r="16" fill="rgba(29,111,164,0.15)" stroke="#2387c8" stroke-width="1"/>
  <line x1="-88" y1="0"   x2="88"  y2="0"   stroke="#1d6fa4" stroke-width="0.5" opacity="0.25"/>
  <line x1="0"   y1="-88" x2="0"   y2="88"  stroke="#1d6fa4" stroke-width="0.5" opacity="0.25"/>
  <line x1="-62" y1="-62" x2="62"  y2="62"  stroke="#1d6fa4" stroke-width="0.4" opacity="0.15"/>
  <line x1="62"  y1="-62" x2="-62" y2="62"  stroke="#1d6fa4" stroke-width="0.4" opacity="0.15"/>
  <path d="M0 0 L72 0 A72 72 0 0 0 51 -51 Z" fill="url(#sweep)" opacity="0.7"/>
  <line x1="0" y1="0" x2="62" y2="-45" stroke="#2387c8" stroke-width="1.8" stroke-linecap="round"/>
  <circle cx="48" cy="-22" r="5.5" fill="#c0392b"/>
  <circle cx="48" cy="-22" r="10"  fill="none" stroke="#c0392b" stroke-width="1" opacity="0.5"/>
  <circle cx="48" cy="-22" r="15"  fill="none" stroke="#c0392b" stroke-width="0.5" opacity="0.25"/>
  <circle cx="-44" cy="30" r="3.5" fill="#b8960a"/>
  <circle cx="-44" cy="30" r="7"   fill="none" stroke="#b8960a" stroke-width="0.8" opacity="0.4"/>
  <circle cx="0" cy="0" r="4" fill="#2387c8"/>
  <circle cx="0" cy="0" r="2" fill="#cdd9e5"/>
</g>
<text x="160" y="262" font-family="IBM Plex Mono, monospace" font-size="14" font-weight="600" fill="#cdd9e5" letter-spacing="4" text-anchor="middle">RISK MANAGER</text>
<text x="160" y="280" font-family="IBM Plex Mono, monospace" font-size="9" fill="#2387c8" letter-spacing="3.5" text-anchor="middle">SOVEREIGN · AI-POWERED</text>
<line x1="80" y1="290" x2="240" y2="290" stroke="#1c2730" stroke-width="1"/>
<text x="160" y="305" font-family="IBM Plex Mono, monospace" font-size="8" fill="#4d6579" letter-spacing="2.5" text-anchor="middle">ONE CIRCLE IT SOLUTIONS</text>
</svg>
